<?xml version="1.0" encoding="utf-8"?>
<!-- Generator: Adobe Illustrator 15.0.0, SVG Export Plug-In . SVG Version: 6.00 Build 0)  -->
<!DOCTYPE svg PUBLIC "-//W3C//DTD SVG 1.1//EN" "http://www.w3.org/Graphics/SVG/1.1/DTD/svg11.dtd">
<svg version="1.1" xmlns="http://www.w3.org/2000/svg" xmlns:xlink="http://www.w3.org/1999/xlink" x="0px" y="0px"
	 width="841.89px" height="595.28px" viewBox="0 0 841.89 595.28" enable-background="new 0 0 841.89 595.28" xml:space="preserve">
<g id="Capa_1">
	<g>
		<g>
			<path fill="#FFFFFF" d="M528.472,356.118c-2.476-0.396-5.012-0.57-7.416-1.225c-19.99-5.449-33.571-17.51-38.722-38.051
				c-0.576-2.301-0.572-4.746-0.822-7.127c-0.066-0.629,0.07-1.041,0.889-1.039c9.557,0.025,19.113,0.018,28.67,0.023
				c0.155,0,0.311,0.047,0.561,0.088c0.28,3.352,1.516,6.32,3.646,8.928c8.947,10.953,25.423,10.566,33.813-0.803
				c1.519-2.057,2.528-4.33,2.964-6.863c0.182-1.057-0.189-1.586-1.179-2.002c-6.271-2.639-12.915-3.844-19.521-5.207
				c-8.207-1.695-16.48-3.119-24.404-5.973c-5.564-2.003-10.753-4.656-15.354-8.439c-7.749-6.373-10.506-14.684-10.075-24.469
				c0.889-20.178,18.497-39.462,38.587-43.903c2.527-0.559,5.117-0.835,7.678-1.248c0.312-0.051,0.616-0.14,0.925-0.21
				c2.159,0,4.319,0,6.479,0c0.267,0.066,0.53,0.173,0.801,0.194c7.955,0.647,15.352,3.081,22.088,7.311
				c12.383,7.774,20.656,18.556,23.512,33.111c0.439,2.24,0.503,4.554,0.743,6.861c-10.22,0-20.126,0-30.11,0
				c-0.322-4.963-2.773-8.712-6.443-11.788c-4.332-3.631-9.243-5.744-14.967-5.335c-6.979,0.499-12.385,3.913-16.513,9.455
				c-1.411,1.895-2.253,4.034-2.521,6.394c-0.099,0.871,0.034,1.641,0.935,1.986c2.01,0.771,3.988,1.713,6.07,2.198
				c9.606,2.237,19.244,4.342,28.869,6.496c6.896,1.544,13.578,3.678,19.608,7.469c5.802,3.646,10.654,8.194,13.167,14.771
				c2.207,5.779,2.107,11.753,1.192,17.744c-1.392,9.105-5.574,16.842-11.811,23.523c-7.621,8.168-16.718,13.813-27.768,16.031
				c-2.42,0.486-4.887,0.738-7.332,1.098C532.632,356.118,530.552,356.118,528.472,356.118z"/>
			<path fill="#FFFFFF" d="M728.152,265.157c0,0.32,0,0.641,0,0.96c-9.92,0.012-19.839,0.022-29.758,0.027
				c-0.147,0-0.295-0.079-0.45-0.123c-0.239-3.06-1.146-5.877-3.079-8.217c-5.381-6.508-12.031-9.922-20.742-8.516
				c-7.554,1.219-15.367,7.644-16.568,15.469c-0.149,0.972-0.059,1.688,0.91,2.037c2.324,0.841,4.611,1.861,7.004,2.42
				c9.954,2.327,19.953,4.466,29.915,6.762c7.138,1.646,13.926,4.195,19.92,8.521c5.657,4.084,10.044,9.129,11.751,16.112
				c1.079,4.416,1.043,8.879,0.502,13.352c-1.147,9.492-5.233,17.613-11.648,24.613c-7.691,8.393-16.917,14.197-28.184,16.455
				c-2.42,0.484-4.888,0.732-7.333,1.088c-2,0-4,0-6,0c-0.27-0.064-0.536-0.166-0.809-0.186c-8.653-0.617-16.522-3.512-23.725-8.262
				c-11.87-7.828-19.646-18.471-22.138-32.652c-0.354-2.014-0.363-4.088-0.533-6.152c10.248,0,20.187,0,30.109,0
				c0.842,4.383,1.533,6.283,3.508,8.615c7.76,9.16,20.512,11.857,31.087,2.537c3.02-2.662,5.187-5.842,5.874-9.902
				c0.173-1.018-0.068-1.723-1.11-2.057c-3.189-1.027-6.321-2.301-9.574-3.051c-7.858-1.814-15.78-3.352-23.664-5.063
				c-7.416-1.607-14.582-3.946-21.092-7.94c-5.84-3.582-10.745-8.083-13.239-14.687c-2.501-6.623-2.392-13.414-0.856-20.192
				c4.093-18.068,20.156-33.552,38.617-37.309c2.495-0.508,5.029-0.818,7.545-1.221c2.4,0,4.8,0,7.2,0
				c1.336,0.196,2.674,0.375,4.007,0.591c9.574,1.55,17.862,5.819,25.204,12.027c8.764,7.409,14.403,16.688,16.491,28.03
				C727.654,261.203,727.87,263.187,728.152,265.157z"/>
			<path fill="#FFFFFF" d="M186.471,218.598c2.518,0.402,5.061,0.691,7.551,1.225c14.604,3.124,33.908,16.25,38.362,38.158
				c0.531,2.609,0.707,5.292,1.062,8.06c-10.146,0-20.074,0-29.983,0c-0.41-1.395-0.721-2.8-1.23-4.129
				c-4.477-11.681-18.449-16.436-29.532-10.062c-4.867,2.8-8.522,6.568-9.706,12.298c-0.408,1.976-0.382,2.345,1.519,2.978
				c3.819,1.271,7.647,2.565,11.554,3.511c10.359,2.509,20.802,4.677,31.133,7.29c7.946,2.009,14.655,6.316,19.998,12.555
				c4.833,5.642,6.495,12.366,6.035,19.659c-0.606,9.621-3.51,18.475-9.715,25.941c-9.432,11.352-21.387,18.297-36.244,19.84
				c-0.271,0.027-0.535,0.129-0.802,0.197c-2.32,0-4.64,0-6.96,0c-0.267-0.068-0.53-0.176-0.801-0.199
				c-7.186-0.619-13.939-2.697-20.191-6.262c-12.5-7.131-21.052-17.42-24.738-31.486c-0.491-1.875-0.72-3.82-1.07-5.732
				c0-1.201,0-2.4,0-3.6c0.198-0.02,0.397-0.053,0.595-0.053c9.519-0.002,19.039-0.002,28.558,0c0.274,0,0.549,0.043,0.874,0.068
				c0.06,0.338,0.138,0.645,0.167,0.957c0.196,2.156,0.913,4.143,2.119,5.92c7.133,10.504,20.208,13.32,30.474,5.695
				c3.846-2.857,6.866-6.344,7.646-11.322c0.152-0.971-0.02-1.664-1.016-1.986c-3.224-1.043-6.396-2.313-9.684-3.078
				c-9.138-2.127-18.358-3.906-27.482-6.088c-7.186-1.719-14.031-4.411-20.036-8.86c-5.463-4.049-9.765-8.979-11.383-15.809
				c-0.338-1.428-0.558-2.883-0.832-4.325c0-2.32,0-4.641,0-6.961c0.203-1.337,0.389-2.677,0.612-4.011
				c1.528-9.126,5.831-16.828,12.087-23.53c7.516-8.051,16.484-13.594,27.37-15.776c2.38-0.478,4.807-0.728,7.211-1.082
				C182.151,218.598,184.311,218.598,186.471,218.598z"/>
			<path fill="#FFFFFF" d="M385.431,356.118c-0.056-0.551-0.162-1.102-0.162-1.652c-0.008-33.998-0.007-67.996-0.007-101.994
				c0-0.55,0-1.1,0-1.794c-10.739,0-21.354,0-32.052,0c0-10.119,0-20.093,0-30.134c40.236,0,80.421,0,120.708,0
				c0,9.998,0,20.014,0,30.159c-19.042,0-38.138,0-57.433,0c0,0.667,0,1.207,0,1.748c0,33.958,0,67.917-0.004,101.874
				c0,0.598-0.059,1.195-0.09,1.793C406.071,356.118,395.751,356.118,385.431,356.118z"/>
			<path fill="#FFFFFF" d="M314.151,356.118c-0.434-0.504-0.971-0.951-1.287-1.521c-12.269-22.156-24.524-44.322-36.745-66.507
				c-0.442-0.802-0.722-1.809-0.724-2.722c-0.054-19.599-0.057-39.196-0.07-58.795c0-0.308,0-0.616,0-0.924
				c0.114-0.039,0.229-0.078,0.343-0.117c13.301,23.932,26.602,47.863,39.903,71.794c0.084-0.018,0.169-0.035,0.254-0.053
				c0-25.51,0-51.02,0-76.606c10.056,0,19.954,0,30.006,0c0,45.173,0,90.313,0,135.452
				C335.271,356.118,324.711,356.118,314.151,356.118z"/>
			<path fill="#FFFFFF" d="M240.951,356.118c-0.056-0.471-0.162-0.941-0.162-1.41c-0.008-31.959-0.007-63.917-0.007-95.875
				c0-0.43,0-0.86,0-1.357c9.96,0,19.778,0,29.744,0c0,0.479,0,0.905,0,1.331c0,31.998,0,63.997-0.002,95.995
				c0,0.438-0.034,0.877-0.052,1.316C260.631,356.118,250.791,356.118,240.951,356.118z"/>
			<path fill="#FFFFFF" d="M589.672,356.118c-0.01-0.479-0.026-0.959-0.027-1.438c-0.001-26.631-0.001-53.26-0.001-79.889
				c0-0.437,0-0.872,0-1.39c10.002,0,19.934,0,30.028,0c0,27.572,0,55.144,0,82.716
				C609.672,356.118,599.672,356.118,589.672,356.118z"/>
			<path fill="#FFFFFF" d="M473.961,273.332c0,10.023,0,19.962,0,29.991c-17.252,0-34.458,0-51.75,0c0-9.964,0-19.934,0-29.991
				C439.425,273.332,456.631,273.332,473.961,273.332z"/>
			<path fill="#FFFFFF" d="M473.953,355.905c-17.268,0-34.484,0-51.771,0c0-10.002,0-19.941,0-29.959c17.24,0,34.459,0,51.771,0
				C473.953,335.907,473.953,345.874,473.953,355.905z"/>
			<path fill="#FFE000" d="M272.046,236.617c-5.253,6.332-10.425,12.565-15.681,18.901c-12.225-10.076-24.379-20.094-36.81-30.339
				c0.743-0.042,1.118-0.083,1.493-0.083c11.789,0.004,23.578,0.019,35.368,0.012c1.217,0,2.242,0.351,3.184,1.137
				c3.804,3.174,7.638,6.313,11.457,9.469C271.36,235.965,271.641,236.246,272.046,236.617z"/>
			<path fill="#FFFFFF" d="M589.687,250.668c0-10.087,0-20.111,0-30.235c9.953,0,19.878,0,29.89,0c0,10.046,0,20.096,0,30.235
				C609.675,250.668,599.746,250.668,589.687,250.668z"/>
		</g>
	</g>
	<line stroke="#FFFFFF" stroke-width="4" stroke-miterlimit="10" x1="459.279" y1="395.899" x2="132.711" y2="395.899"/>
</g>
<g id="Capa_2">
	<g>
		<path fill="#FFE000" d="M471.425,407.866l-11.302-25.632h0.999h3.31h0.203h0.812l5.963,13.721l5.963-13.721h1.062h4.324
			L471.425,407.866z"/>
		<path fill="#FFE000" d="M484.633,382.234h5.042v25.163h-5.042V382.234z"/>
		<path fill="#FFE000" d="M499.634,402.402c1.39,0,2.545-1.155,2.545-2.544c0-1.077-0.422-1.765-1.28-2.076
			c-1.811-0.672-1.374-0.516-3.138-1.124c-1.857-0.641-3.574-1.904-4.729-3.481c-0.687-0.937-1.03-2.092-1.03-3.48
			c0-2.092,0.749-3.887,2.248-5.386c1.498-1.498,3.293-2.248,5.4-2.248c2.092,0,3.887,0.75,5.386,2.248
			c1.498,1.499,2.248,3.294,2.248,5.386h-5.073c0-1.374-1.155-2.529-2.529-2.529c-1.389,0-2.544,1.155-2.544,2.545
			c0,0.905,0.358,1.592,1.093,2.061c1.498,0.968,1.326,0.78,3.122,1.311c1.936,0.563,3.684,1.765,4.886,3.31
			c0.702,0.905,1.062,2.076,1.062,3.497c0,2.106-0.75,3.902-2.248,5.4c-1.499,1.499-3.294,2.248-5.386,2.248
			c-2.107,0-3.902-0.749-5.4-2.248c-1.499-1.498-2.248-3.294-2.248-5.4h5.089c0,1.404,1.14,2.544,2.544,2.544L499.634,402.402z"/>
		<path fill="#FFE000" d="M509.609,382.234h5.042v25.163h-5.042V382.234z"/>
		<path fill="#FFE000" d="M538.207,385.84c2.497,2.497,3.746,5.494,3.746,8.991c0,3.496-1.249,6.493-3.746,8.976
			c-2.498,2.481-5.495,3.73-8.991,3.73c-3.497,0-6.494-1.249-8.976-3.73c-2.482-2.482-3.731-5.479-3.731-8.976
			c0-3.497,1.249-6.494,3.731-8.991c2.481-2.498,5.479-3.747,8.976-3.747C532.712,382.093,535.709,383.342,538.207,385.84z
			 M523.83,389.415c-1.482,1.498-2.232,3.294-2.232,5.386c0,2.106,0.75,3.902,2.232,5.385c1.483,1.483,3.278,2.232,5.386,2.232
			c2.092,0,3.887-0.749,5.385-2.232c1.499-1.482,2.248-3.278,2.248-5.385c0-2.092-0.749-3.888-2.248-5.386
			c-1.498-1.498-3.293-2.248-5.385-2.248C527.108,387.167,525.313,387.917,523.83,389.415z M533.165,375.1l-5.12,4.762l-1.811-1.374
			l4.012-5.697L533.165,375.1z"/>
		<path fill="#FFE000" d="M558.908,396.142v-13.908h5.042v25.632l-15.095-14.393v13.924h-5.042v-25.631L558.908,396.142z"/>
		<path fill="#FFE000" d="M587.882,382.171c1.748,0,3.387,0.328,4.933,0.999c1.545,0.672,2.903,1.577,4.074,2.717l-3.591,3.59
			c-1.514-1.499-3.309-2.248-5.385-2.248c-2.107,0-3.902,0.749-5.386,2.248c-1.482,1.498-2.232,3.294-2.232,5.386
			c0,2.106,0.75,3.902,2.232,5.385c1.483,1.483,3.278,2.232,5.386,2.232s3.902-0.749,5.4-2.248l3.591,3.591
			c-1.171,1.154-2.529,2.061-4.074,2.731c-1.546,0.671-3.185,0.999-4.933,0.999c-3.497,0-6.494-1.249-8.976-3.73
			c-2.482-2.482-3.731-5.479-3.731-8.976c0-3.497,1.249-6.494,3.731-8.991c2.481-2.498,5.479-3.747,8.976-3.747L587.882,382.171z"/>
		<path fill="#FFE000" d="M598.747,382.203h8.18c2.419,0,4.808,0.843,6.54,2.576c1.732,1.732,2.436,3.355,2.436,5.775v0.78
			c0,1.873-0.531,3.247-1.593,4.745c-1.062,1.499-1.951,1.936-3.605,2.561l5.682,8.757h-6.15l-6.431-9.834v9.834h-5.042
			L598.747,382.203z M607.395,394.332c1.046,0,1.577-0.266,2.311-0.999s0.999-1.576,0.999-2.622c0-1.03-0.266-1.718-0.999-2.467
			s-2.045-1.015-3.091-1.015h-2.825v7.087L607.395,394.332z"/>
		<path fill="#FFE000" d="M633.824,382.234v5.026h-10.053v5.042h7.539v5.026h-7.539v5.026h10.053v5.042h-10.053h-5.042v-25.163
			H633.824z"/>
		<path fill="#FFE000" d="M642.628,403.51c-0.562,1.28-1.14,2.544-1.717,3.824h-5.417l11.411-25.568l11.442,25.568h-5.433
			c-0.562-1.265-1.124-2.544-1.686-3.809h-8.57L642.628,403.51z M649.169,399.077l-2.217-5.229l-2.232,5.229H649.169z"/>
		<path fill="#FFE000" d="M671.29,382.234h6.29v5.026h-6.29v20.137h-5.042V387.26h-6.291v-5.026h6.291H671.29z"/>
		<path fill="#FFE000" d="M679.768,382.234h5.042v25.163h-5.042V382.234z"/>
		<path fill="#FFE000" d="M697.984,407.866l-11.302-25.632h0.999h3.31h0.203h0.812l5.963,13.721l5.963-13.721h1.062h4.324
			L697.984,407.866z"/>
		<path fill="#FFE000" d="M711.253,403.51c-0.562,1.28-1.14,2.544-1.717,3.824h-5.417l11.411-25.568l11.442,25.568h-5.433
			c-0.562-1.265-1.124-2.544-1.686-3.809h-8.57L711.253,403.51z M717.794,399.077l-2.217-5.229l-2.232,5.229H717.794z"/>
	</g>
</g>
</svg>
